# xmcd CD database file generated by OrangeCD 5.2
#
# Track frame offsets:
#	150
#	15325
#	33935
#	54836
#	76648
#	100038
#	117985
#	137132
#	152501
#	172032
#	209817
#	235566
#	255301
#
# Disc length: 3674 seconds
#
# Revision: 0
# Processed by: cddbd v1.5.1PL0 Copyright (c) Steve Scherf et al.
# Submitted via: OrangeCD 5.2
#
DISCID=930e580d
DTITLE=Keb Mo - Tin Angel, Philadelphia, PA.
DYEAR=1995
DGENRE=Blues
TTITLE0=Take It Away
TTITLE1=Victims of Comfort
TTITLE2=Kindhearted Woman Blues
TTITLE3=Love Blues
TTITLE4=Get On Your Knees and Pray
TTITLE5=Every Morning
TTITLE6=Gonna Tell Everybody
TTITLE7=Anybody Seen My Girl
TTITLE8=Anjelina
TTITLE9=Am I Wrong
TTITLE10=City Boy
TTITLE11=She Just Wants To dance
TTITLE12=Dirty, Low Down and Bad
EXTD=
EXTT0=
EXTT1=
EXTT2=
EXTT3=
EXTT4=
EXTT5=
EXTT6=
EXTT7=
EXTT8=
EXTT9=
EXTT10=
EXTT11=
EXTT12=
PLAYORDER=
